<mxfile host="app.diagrams.net" agent="Mozilla/5.0 (Windows NT 10.0; Win64; x64; rv:129.0) Gecko/20100101 Firefox/129.0" version="24.7.6">
  <diagram id="yPxyJZ8AM_hMuL3Unpa9" name="complex gitflow">
    <mxGraphModel dx="546" dy="795" grid="1" gridSize="10" guides="1" tooltips="1" connect="1" arrows="1" fold="1" page="1" pageScale="1" pageWidth="1100" pageHeight="850" math="0" shadow="0">
      <root>
        <mxCell id="0" />
        <mxCell id="1" parent="0" />
        <mxCell id="ZqO9aC7JYhHN-Veu2SgB-3" style="edgeStyle=orthogonalEdgeStyle;rounded=0;orthogonalLoop=1;jettySize=auto;html=1;entryX=0.5;entryY=0;entryDx=0;entryDy=0;" parent="1" source="ZqO9aC7JYhHN-Veu2SgB-1" target="ZqO9aC7JYhHN-Veu2SgB-2" edge="1">
          <mxGeometry relative="1" as="geometry" />
        </mxCell>
        <mxCell id="ZqO9aC7JYhHN-Veu2SgB-1" value="&lt;div&gt;start&lt;/div&gt;" style="html=1;dashed=0;whiteSpace=wrap;shape=mxgraph.dfd.start" parent="1" vertex="1">
          <mxGeometry x="120" y="40" width="80" height="30" as="geometry" />
        </mxCell>
        <mxCell id="ZqO9aC7JYhHN-Veu2SgB-43" value="" style="edgeStyle=orthogonalEdgeStyle;rounded=0;orthogonalLoop=1;jettySize=auto;html=1;" parent="1" source="ZqO9aC7JYhHN-Veu2SgB-2" target="ZqO9aC7JYhHN-Veu2SgB-42" edge="1">
          <mxGeometry relative="1" as="geometry" />
        </mxCell>
        <mxCell id="ZqO9aC7JYhHN-Veu2SgB-2" value="&lt;div&gt;singleKey = R15&lt;br&gt;&lt;/div&gt;&lt;div&gt;keySum = R16&lt;/div&gt;&lt;div&gt;n = R18&lt;br&gt;&lt;/div&gt;" style="html=1;dashed=0;whiteSpace=wrap;" parent="1" vertex="1">
          <mxGeometry x="110" y="140" width="100" height="70" as="geometry" />
        </mxCell>
        <mxCell id="ZqO9aC7JYhHN-Veu2SgB-4" value="&lt;div&gt;R1&lt;span style=&quot;white-space: pre;&quot;&gt;&#x9;&lt;/span&gt;&lt;/div&gt;" style="html=1;dashed=0;whiteSpace=wrap;shape=mxgraph.dfd.dataStoreID;align=left;spacingLeft=3;points=[[0,0],[0.5,0],[1,0],[0,0.5],[1,0.5],[0,1],[0.5,1],[1,1]];" parent="1" vertex="1">
          <mxGeometry x="1020" y="40" width="100" height="30" as="geometry" />
        </mxCell>
        <mxCell id="ZqO9aC7JYhHN-Veu2SgB-5" value="&lt;div&gt;R2&lt;/div&gt;" style="html=1;dashed=0;whiteSpace=wrap;shape=mxgraph.dfd.dataStoreID;align=left;spacingLeft=3;points=[[0,0],[0.5,0],[1,0],[0,0.5],[1,0.5],[0,1],[0.5,1],[1,1]];" parent="1" vertex="1">
          <mxGeometry x="1020" y="70" width="100" height="30" as="geometry" />
        </mxCell>
        <mxCell id="ZqO9aC7JYhHN-Veu2SgB-6" value="R3" style="html=1;dashed=0;whiteSpace=wrap;shape=mxgraph.dfd.dataStoreID;align=left;spacingLeft=3;points=[[0,0],[0.5,0],[1,0],[0,0.5],[1,0.5],[0,1],[0.5,1],[1,1]];" parent="1" vertex="1">
          <mxGeometry x="1020" y="100" width="100" height="30" as="geometry" />
        </mxCell>
        <mxCell id="ZqO9aC7JYhHN-Veu2SgB-7" value="R4" style="html=1;dashed=0;whiteSpace=wrap;shape=mxgraph.dfd.dataStoreID;align=left;spacingLeft=3;points=[[0,0],[0.5,0],[1,0],[0,0.5],[1,0.5],[0,1],[0.5,1],[1,1]];" parent="1" vertex="1">
          <mxGeometry x="1020" y="130" width="100" height="30" as="geometry" />
        </mxCell>
        <mxCell id="ZqO9aC7JYhHN-Veu2SgB-8" value="R5" style="html=1;dashed=0;whiteSpace=wrap;shape=mxgraph.dfd.dataStoreID;align=left;spacingLeft=3;points=[[0,0],[0.5,0],[1,0],[0,0.5],[1,0.5],[0,1],[0.5,1],[1,1]];" parent="1" vertex="1">
          <mxGeometry x="1020" y="160" width="100" height="30" as="geometry" />
        </mxCell>
        <mxCell id="ZqO9aC7JYhHN-Veu2SgB-9" value="R6" style="html=1;dashed=0;whiteSpace=wrap;shape=mxgraph.dfd.dataStoreID;align=left;spacingLeft=3;points=[[0,0],[0.5,0],[1,0],[0,0.5],[1,0.5],[0,1],[0.5,1],[1,1]];" parent="1" vertex="1">
          <mxGeometry x="1020" y="190" width="100" height="30" as="geometry" />
        </mxCell>
        <mxCell id="ZqO9aC7JYhHN-Veu2SgB-12" value="R7" style="html=1;dashed=0;whiteSpace=wrap;shape=mxgraph.dfd.dataStoreID;align=left;spacingLeft=3;points=[[0,0],[0.5,0],[1,0],[0,0.5],[1,0.5],[0,1],[0.5,1],[1,1]];" parent="1" vertex="1">
          <mxGeometry x="1020" y="220" width="100" height="30" as="geometry" />
        </mxCell>
        <mxCell id="ZqO9aC7JYhHN-Veu2SgB-13" value="R8" style="html=1;dashed=0;whiteSpace=wrap;shape=mxgraph.dfd.dataStoreID;align=left;spacingLeft=3;points=[[0,0],[0.5,0],[1,0],[0,0.5],[1,0.5],[0,1],[0.5,1],[1,1]];" parent="1" vertex="1">
          <mxGeometry x="1020" y="250" width="100" height="30" as="geometry" />
        </mxCell>
        <mxCell id="ZqO9aC7JYhHN-Veu2SgB-14" value="R9" style="html=1;dashed=0;whiteSpace=wrap;shape=mxgraph.dfd.dataStoreID;align=left;spacingLeft=3;points=[[0,0],[0.5,0],[1,0],[0,0.5],[1,0.5],[0,1],[0.5,1],[1,1]];" parent="1" vertex="1">
          <mxGeometry x="1020" y="280" width="100" height="30" as="geometry" />
        </mxCell>
        <mxCell id="ZqO9aC7JYhHN-Veu2SgB-15" value="R10" style="html=1;dashed=0;whiteSpace=wrap;shape=mxgraph.dfd.dataStoreID;align=left;spacingLeft=3;points=[[0,0],[0.5,0],[1,0],[0,0.5],[1,0.5],[0,1],[0.5,1],[1,1]];" parent="1" vertex="1">
          <mxGeometry x="1020" y="310" width="100" height="30" as="geometry" />
        </mxCell>
        <mxCell id="ZqO9aC7JYhHN-Veu2SgB-16" value="R11" style="html=1;dashed=0;whiteSpace=wrap;shape=mxgraph.dfd.dataStoreID;align=left;spacingLeft=3;points=[[0,0],[0.5,0],[1,0],[0,0.5],[1,0.5],[0,1],[0.5,1],[1,1]];" parent="1" vertex="1">
          <mxGeometry x="1020" y="340" width="100" height="30" as="geometry" />
        </mxCell>
        <mxCell id="ZqO9aC7JYhHN-Veu2SgB-17" value="R12" style="html=1;dashed=0;whiteSpace=wrap;shape=mxgraph.dfd.dataStoreID;align=left;spacingLeft=3;points=[[0,0],[0.5,0],[1,0],[0,0.5],[1,0.5],[0,1],[0.5,1],[1,1]];" parent="1" vertex="1">
          <mxGeometry x="1020" y="370" width="100" height="30" as="geometry" />
        </mxCell>
        <mxCell id="ZqO9aC7JYhHN-Veu2SgB-18" value="R13" style="html=1;dashed=0;whiteSpace=wrap;shape=mxgraph.dfd.dataStoreID;align=left;spacingLeft=3;points=[[0,0],[0.5,0],[1,0],[0,0.5],[1,0.5],[0,1],[0.5,1],[1,1]];" parent="1" vertex="1">
          <mxGeometry x="1020" y="400" width="100" height="30" as="geometry" />
        </mxCell>
        <mxCell id="ZqO9aC7JYhHN-Veu2SgB-19" value="R14" style="html=1;dashed=0;whiteSpace=wrap;shape=mxgraph.dfd.dataStoreID;align=left;spacingLeft=3;points=[[0,0],[0.5,0],[1,0],[0,0.5],[1,0.5],[0,1],[0.5,1],[1,1]];" parent="1" vertex="1">
          <mxGeometry x="1020" y="430" width="100" height="30" as="geometry" />
        </mxCell>
        <mxCell id="ZqO9aC7JYhHN-Veu2SgB-20" value="R15" style="html=1;dashed=0;whiteSpace=wrap;shape=mxgraph.dfd.dataStoreID;align=left;spacingLeft=3;points=[[0,0],[0.5,0],[1,0],[0,0.5],[1,0.5],[0,1],[0.5,1],[1,1]];" parent="1" vertex="1">
          <mxGeometry x="1020" y="460" width="100" height="30" as="geometry" />
        </mxCell>
        <mxCell id="ZqO9aC7JYhHN-Veu2SgB-21" value="R16" style="html=1;dashed=0;whiteSpace=wrap;shape=mxgraph.dfd.dataStoreID;align=left;spacingLeft=3;points=[[0,0],[0.5,0],[1,0],[0,0.5],[1,0.5],[0,1],[0.5,1],[1,1]];" parent="1" vertex="1">
          <mxGeometry x="1020" y="490" width="100" height="30" as="geometry" />
        </mxCell>
        <mxCell id="ZqO9aC7JYhHN-Veu2SgB-22" value="R17" style="html=1;dashed=0;whiteSpace=wrap;shape=mxgraph.dfd.dataStoreID;align=left;spacingLeft=3;points=[[0,0],[0.5,0],[1,0],[0,0.5],[1,0.5],[0,1],[0.5,1],[1,1]];" parent="1" vertex="1">
          <mxGeometry x="1020" y="520" width="100" height="30" as="geometry" />
        </mxCell>
        <mxCell id="ZqO9aC7JYhHN-Veu2SgB-23" value="R18" style="html=1;dashed=0;whiteSpace=wrap;shape=mxgraph.dfd.dataStoreID;align=left;spacingLeft=3;points=[[0,0],[0.5,0],[1,0],[0,0.5],[1,0.5],[0,1],[0.5,1],[1,1]];" parent="1" vertex="1">
          <mxGeometry x="1020" y="550" width="100" height="30" as="geometry" />
        </mxCell>
        <mxCell id="ZqO9aC7JYhHN-Veu2SgB-24" value="R19" style="html=1;dashed=0;whiteSpace=wrap;shape=mxgraph.dfd.dataStoreID;align=left;spacingLeft=3;points=[[0,0],[0.5,0],[1,0],[0,0.5],[1,0.5],[0,1],[0.5,1],[1,1]];" parent="1" vertex="1">
          <mxGeometry x="1020" y="580" width="100" height="30" as="geometry" />
        </mxCell>
        <mxCell id="ZqO9aC7JYhHN-Veu2SgB-25" value="R20" style="html=1;dashed=0;whiteSpace=wrap;shape=mxgraph.dfd.dataStoreID;align=left;spacingLeft=3;points=[[0,0],[0.5,0],[1,0],[0,0.5],[1,0.5],[0,1],[0.5,1],[1,1]];" parent="1" vertex="1">
          <mxGeometry x="1020" y="610" width="100" height="30" as="geometry" />
        </mxCell>
        <mxCell id="ZqO9aC7JYhHN-Veu2SgB-26" value="R21" style="html=1;dashed=0;whiteSpace=wrap;shape=mxgraph.dfd.dataStoreID;align=left;spacingLeft=3;points=[[0,0],[0.5,0],[1,0],[0,0.5],[1,0.5],[0,1],[0.5,1],[1,1]];" parent="1" vertex="1">
          <mxGeometry x="1020" y="640" width="100" height="30" as="geometry" />
        </mxCell>
        <mxCell id="ZqO9aC7JYhHN-Veu2SgB-27" value="R22" style="html=1;dashed=0;whiteSpace=wrap;shape=mxgraph.dfd.dataStoreID;align=left;spacingLeft=3;points=[[0,0],[0.5,0],[1,0],[0,0.5],[1,0.5],[0,1],[0.5,1],[1,1]];" parent="1" vertex="1">
          <mxGeometry x="1020" y="670" width="100" height="30" as="geometry" />
        </mxCell>
        <mxCell id="ZqO9aC7JYhHN-Veu2SgB-28" value="R23" style="html=1;dashed=0;whiteSpace=wrap;shape=mxgraph.dfd.dataStoreID;align=left;spacingLeft=3;points=[[0,0],[0.5,0],[1,0],[0,0.5],[1,0.5],[0,1],[0.5,1],[1,1]];" parent="1" vertex="1">
          <mxGeometry x="1020" y="700" width="100" height="30" as="geometry" />
        </mxCell>
        <mxCell id="ZqO9aC7JYhHN-Veu2SgB-29" value="R24" style="html=1;dashed=0;whiteSpace=wrap;shape=mxgraph.dfd.dataStoreID;align=left;spacingLeft=3;points=[[0,0],[0.5,0],[1,0],[0,0.5],[1,0.5],[0,1],[0.5,1],[1,1]];" parent="1" vertex="1">
          <mxGeometry x="1020" y="730" width="100" height="30" as="geometry" />
        </mxCell>
        <mxCell id="ZqO9aC7JYhHN-Veu2SgB-30" value="R25" style="html=1;dashed=0;whiteSpace=wrap;shape=mxgraph.dfd.dataStoreID;align=left;spacingLeft=3;points=[[0,0],[0.5,0],[1,0],[0,0.5],[1,0.5],[0,1],[0.5,1],[1,1]];" parent="1" vertex="1">
          <mxGeometry x="1020" y="760" width="100" height="30" as="geometry" />
        </mxCell>
        <mxCell id="ZqO9aC7JYhHN-Veu2SgB-31" value="R26" style="html=1;dashed=0;whiteSpace=wrap;shape=mxgraph.dfd.dataStoreID;align=left;spacingLeft=3;points=[[0,0],[0.5,0],[1,0],[0,0.5],[1,0.5],[0,1],[0.5,1],[1,1]];" parent="1" vertex="1">
          <mxGeometry x="1020" y="790" width="100" height="30" as="geometry" />
        </mxCell>
        <mxCell id="ZqO9aC7JYhHN-Veu2SgB-32" value="R27" style="html=1;dashed=0;whiteSpace=wrap;shape=mxgraph.dfd.dataStoreID;align=left;spacingLeft=3;points=[[0,0],[0.5,0],[1,0],[0,0.5],[1,0.5],[0,1],[0.5,1],[1,1]];" parent="1" vertex="1">
          <mxGeometry x="1020" y="820" width="100" height="30" as="geometry" />
        </mxCell>
        <mxCell id="ZqO9aC7JYhHN-Veu2SgB-33" value="R28" style="html=1;dashed=0;whiteSpace=wrap;shape=mxgraph.dfd.dataStoreID;align=left;spacingLeft=3;points=[[0,0],[0.5,0],[1,0],[0,0.5],[1,0.5],[0,1],[0.5,1],[1,1]];" parent="1" vertex="1">
          <mxGeometry x="1020" y="850" width="100" height="30" as="geometry" />
        </mxCell>
        <mxCell id="ZqO9aC7JYhHN-Veu2SgB-34" value="R29" style="html=1;dashed=0;whiteSpace=wrap;shape=mxgraph.dfd.dataStoreID;align=left;spacingLeft=3;points=[[0,0],[0.5,0],[1,0],[0,0.5],[1,0.5],[0,1],[0.5,1],[1,1]];" parent="1" vertex="1">
          <mxGeometry x="1020" y="880" width="100" height="30" as="geometry" />
        </mxCell>
        <mxCell id="ZqO9aC7JYhHN-Veu2SgB-35" value="R30" style="html=1;dashed=0;whiteSpace=wrap;shape=mxgraph.dfd.dataStoreID;align=left;spacingLeft=3;points=[[0,0],[0.5,0],[1,0],[0,0.5],[1,0.5],[0,1],[0.5,1],[1,1]];" parent="1" vertex="1">
          <mxGeometry x="1020" y="910" width="100" height="30" as="geometry" />
        </mxCell>
        <mxCell id="ZqO9aC7JYhHN-Veu2SgB-36" value="R31" style="html=1;dashed=0;whiteSpace=wrap;shape=mxgraph.dfd.dataStoreID;align=left;spacingLeft=3;points=[[0,0],[0.5,0],[1,0],[0,0.5],[1,0.5],[0,1],[0.5,1],[1,1]];" parent="1" vertex="1">
          <mxGeometry x="1020" y="940" width="100" height="30" as="geometry" />
        </mxCell>
        <mxCell id="ZqO9aC7JYhHN-Veu2SgB-37" value="R16" style="html=1;dashed=0;whiteSpace=wrap;shape=mxgraph.dfd.dataStoreID;align=left;spacingLeft=3;points=[[0,0],[0.5,0],[1,0],[0,0.5],[1,0.5],[0,1],[0.5,1],[1,1]];" parent="1" vertex="1">
          <mxGeometry x="240" y="140" width="100" height="30" as="geometry" />
        </mxCell>
        <mxCell id="ZqO9aC7JYhHN-Veu2SgB-38" value="R18" style="html=1;dashed=0;whiteSpace=wrap;shape=mxgraph.dfd.dataStoreID;align=left;spacingLeft=3;points=[[0,0],[0.5,0],[1,0],[0,0.5],[1,0.5],[0,1],[0.5,1],[1,1]];" parent="1" vertex="1">
          <mxGeometry x="240" y="170" width="100" height="30" as="geometry" />
        </mxCell>
        <mxCell id="ZqO9aC7JYhHN-Veu2SgB-39" value="R15" style="html=1;dashed=0;whiteSpace=wrap;shape=mxgraph.dfd.dataStoreID;align=left;spacingLeft=3;points=[[0,0],[0.5,0],[1,0],[0,0.5],[1,0.5],[0,1],[0.5,1],[1,1]];" parent="1" vertex="1">
          <mxGeometry x="240" y="110" width="100" height="30" as="geometry" />
        </mxCell>
        <mxCell id="ZqO9aC7JYhHN-Veu2SgB-49" value="" style="edgeStyle=orthogonalEdgeStyle;rounded=0;orthogonalLoop=1;jettySize=auto;html=1;" parent="1" source="ZqO9aC7JYhHN-Veu2SgB-42" target="ZqO9aC7JYhHN-Veu2SgB-48" edge="1">
          <mxGeometry relative="1" as="geometry" />
        </mxCell>
        <mxCell id="ZqO9aC7JYhHN-Veu2SgB-42" value="&lt;div&gt;LDI R16 0x00&lt;/div&gt;&lt;div&gt;LDI&amp;nbsp; i=0&lt;br&gt;&lt;/div&gt;" style="whiteSpace=wrap;html=1;dashed=0;" parent="1" vertex="1">
          <mxGeometry x="100" y="255" width="120" height="60" as="geometry" />
        </mxCell>
        <mxCell id="ZqO9aC7JYhHN-Veu2SgB-44" value="R16" style="html=1;dashed=0;whiteSpace=wrap;shape=mxgraph.dfd.dataStoreID;align=left;spacingLeft=3;points=[[0,0],[0.5,0],[1,0],[0,0.5],[1,0.5],[0,1],[0.5,1],[1,1]];" parent="1" vertex="1">
          <mxGeometry x="240" y="285" width="100" height="30" as="geometry" />
        </mxCell>
        <mxCell id="ZqO9aC7JYhHN-Veu2SgB-45" value="0x00" style="text;html=1;align=center;verticalAlign=middle;whiteSpace=wrap;rounded=0;" parent="1" vertex="1">
          <mxGeometry x="260" y="285" width="60" height="30" as="geometry" />
        </mxCell>
        <mxCell id="ZqO9aC7JYhHN-Veu2SgB-46" value="R15" style="html=1;dashed=0;whiteSpace=wrap;shape=mxgraph.dfd.dataStoreID;align=left;spacingLeft=3;points=[[0,0],[0.5,0],[1,0],[0,0.5],[1,0.5],[0,1],[0.5,1],[1,1]];" parent="1" vertex="1">
          <mxGeometry x="240" y="255" width="100" height="30" as="geometry" />
        </mxCell>
        <mxCell id="ZqO9aC7JYhHN-Veu2SgB-47" value="0x00" style="text;html=1;align=center;verticalAlign=middle;whiteSpace=wrap;rounded=0;" parent="1" vertex="1">
          <mxGeometry x="260" y="255" width="60" height="30" as="geometry" />
        </mxCell>
        <mxCell id="ZqO9aC7JYhHN-Veu2SgB-54" value="" style="edgeStyle=orthogonalEdgeStyle;rounded=0;orthogonalLoop=1;jettySize=auto;html=1;" parent="1" source="ZqO9aC7JYhHN-Veu2SgB-48" target="ZqO9aC7JYhHN-Veu2SgB-53" edge="1">
          <mxGeometry relative="1" as="geometry" />
        </mxCell>
        <mxCell id="ZqO9aC7JYhHN-Veu2SgB-48" value="&lt;div&gt;load address of student num high byte into ZH&lt;/div&gt;" style="whiteSpace=wrap;html=1;dashed=0;" parent="1" vertex="1">
          <mxGeometry x="100" y="360" width="120" height="60" as="geometry" />
        </mxCell>
        <mxCell id="ZqO9aC7JYhHN-Veu2SgB-51" value="R31" style="html=1;dashed=0;whiteSpace=wrap;shape=mxgraph.dfd.dataStoreID;align=left;spacingLeft=3;points=[[0,0],[0.5,0],[1,0],[0,0.5],[1,0.5],[0,1],[0.5,1],[1,1]];" parent="1" vertex="1">
          <mxGeometry x="240" y="390" width="100" height="30" as="geometry" />
        </mxCell>
        <mxCell id="ZqO9aC7JYhHN-Veu2SgB-52" value="0x00" style="text;html=1;align=center;verticalAlign=middle;whiteSpace=wrap;rounded=0;" parent="1" vertex="1">
          <mxGeometry x="260" y="390" width="60" height="30" as="geometry" />
        </mxCell>
        <mxCell id="ZqO9aC7JYhHN-Veu2SgB-59" value="" style="edgeStyle=orthogonalEdgeStyle;rounded=0;orthogonalLoop=1;jettySize=auto;html=1;" parent="1" source="ZqO9aC7JYhHN-Veu2SgB-53" target="ZqO9aC7JYhHN-Veu2SgB-58" edge="1">
          <mxGeometry relative="1" as="geometry" />
        </mxCell>
        <mxCell id="ZqO9aC7JYhHN-Veu2SgB-53" value="&lt;div&gt;load low byte address of student numinto ZL&lt;/div&gt;" style="whiteSpace=wrap;html=1;dashed=0;" parent="1" vertex="1">
          <mxGeometry x="100" y="465" width="120" height="60" as="geometry" />
        </mxCell>
        <mxCell id="ZqO9aC7JYhHN-Veu2SgB-55" value="R30" style="html=1;dashed=0;whiteSpace=wrap;shape=mxgraph.dfd.dataStoreID;align=left;spacingLeft=3;points=[[0,0],[0.5,0],[1,0],[0,0.5],[1,0.5],[0,1],[0.5,1],[1,1]];" parent="1" vertex="1">
          <mxGeometry x="240" y="465" width="100" height="30" as="geometry" />
        </mxCell>
        <mxCell id="ZqO9aC7JYhHN-Veu2SgB-57" value="0x64" style="text;html=1;align=center;verticalAlign=middle;whiteSpace=wrap;rounded=0;" parent="1" vertex="1">
          <mxGeometry x="260" y="465" width="60" height="30" as="geometry" />
        </mxCell>
        <mxCell id="LiCZynD67ACgZe0Qm6pF-3" value="" style="edgeStyle=orthogonalEdgeStyle;rounded=0;orthogonalLoop=1;jettySize=auto;html=1;entryX=0.5;entryY=0;entryDx=0;entryDy=0;" edge="1" parent="1" source="ZqO9aC7JYhHN-Veu2SgB-58" target="LiCZynD67ACgZe0Qm6pF-5">
          <mxGeometry relative="1" as="geometry">
            <mxPoint x="160" y="710" as="targetPoint" />
          </mxGeometry>
        </mxCell>
        <mxCell id="ZqO9aC7JYhHN-Veu2SgB-58" value="Load value at program memory address (from Z register) into singleKey" style="whiteSpace=wrap;html=1;dashed=0;" parent="1" vertex="1">
          <mxGeometry x="100" y="570" width="120" height="80" as="geometry" />
        </mxCell>
        <mxCell id="ZqO9aC7JYhHN-Veu2SgB-60" value="&lt;div align=&quot;center&quot;&gt;Z&lt;br&gt;&lt;/div&gt;" style="html=1;dashed=0;whiteSpace=wrap;shape=mxgraph.dfd.dataStoreID;align=left;spacingLeft=3;points=[[0,0],[0.5,0],[1,0],[0,0.5],[1,0.5],[0,1],[0.5,1],[1,1]];" parent="1" vertex="1">
          <mxGeometry x="240" y="585" width="100" height="30" as="geometry" />
        </mxCell>
        <mxCell id="ZqO9aC7JYhHN-Veu2SgB-61" value="0x0064" style="text;html=1;align=center;verticalAlign=middle;whiteSpace=wrap;rounded=0;" parent="1" vertex="1">
          <mxGeometry x="270" y="585" width="60" height="30" as="geometry" />
        </mxCell>
        <mxCell id="ZqO9aC7JYhHN-Veu2SgB-62" value="R18" style="html=1;dashed=0;whiteSpace=wrap;shape=mxgraph.dfd.dataStoreID;align=left;spacingLeft=3;points=[[0,0],[0.5,0],[1,0],[0,0.5],[1,0.5],[0,1],[0.5,1],[1,1]];" parent="1" vertex="1">
          <mxGeometry x="240" y="630" width="100" height="30" as="geometry" />
        </mxCell>
        <mxCell id="LiCZynD67ACgZe0Qm6pF-1" style="edgeStyle=orthogonalEdgeStyle;rounded=0;orthogonalLoop=1;jettySize=auto;html=1;entryX=1;entryY=0.5;entryDx=0;entryDy=0;" edge="1" parent="1" source="ZqO9aC7JYhHN-Veu2SgB-64" target="ZqO9aC7JYhHN-Veu2SgB-62">
          <mxGeometry relative="1" as="geometry" />
        </mxCell>
        <mxCell id="ZqO9aC7JYhHN-Veu2SgB-64" value="3" style="html=1;dashed=0;whiteSpace=wrap;shape=partialRectangle;right=0;" parent="1" vertex="1">
          <mxGeometry x="380" y="630" width="20" height="30" as="geometry" />
        </mxCell>
        <mxCell id="ZqO9aC7JYhHN-Veu2SgB-65" value="" style="endArrow=classic;html=1;rounded=0;entryX=0.5;entryY=0;entryDx=0;entryDy=0;" parent="1" target="ZqO9aC7JYhHN-Veu2SgB-64" edge="1">
          <mxGeometry width="50" height="50" relative="1" as="geometry">
            <mxPoint x="340" y="600" as="sourcePoint" />
            <mxPoint x="390" y="600" as="targetPoint" />
            <Array as="points">
              <mxPoint x="390" y="600" />
            </Array>
          </mxGeometry>
        </mxCell>
        <mxCell id="ZqO9aC7JYhHN-Veu2SgB-66" value="9" style="html=1;dashed=0;whiteSpace=wrap;shape=partialRectangle;right=0;" parent="1" vertex="1">
          <mxGeometry x="400" y="630" width="20" height="30" as="geometry" />
        </mxCell>
        <mxCell id="ZqO9aC7JYhHN-Veu2SgB-69" value="6" style="html=1;dashed=0;whiteSpace=wrap;shape=partialRectangle;right=0;" parent="1" vertex="1">
          <mxGeometry x="420" y="630" width="20" height="30" as="geometry" />
        </mxCell>
        <mxCell id="ZqO9aC7JYhHN-Veu2SgB-70" value="4" style="html=1;dashed=0;whiteSpace=wrap;shape=partialRectangle;right=0;" parent="1" vertex="1">
          <mxGeometry x="440" y="630" width="20" height="30" as="geometry" />
        </mxCell>
        <mxCell id="ZqO9aC7JYhHN-Veu2SgB-71" value="5" style="html=1;dashed=0;whiteSpace=wrap;shape=partialRectangle;right=0;" parent="1" vertex="1">
          <mxGeometry x="460" y="630" width="20" height="30" as="geometry" />
        </mxCell>
        <mxCell id="ZqO9aC7JYhHN-Veu2SgB-72" value="7" style="html=1;dashed=0;whiteSpace=wrap;shape=partialRectangle;right=0;" parent="1" vertex="1">
          <mxGeometry x="480" y="630" width="20" height="30" as="geometry" />
        </mxCell>
        <mxCell id="ZqO9aC7JYhHN-Veu2SgB-73" value="4" style="html=1;dashed=0;whiteSpace=wrap;shape=partialRectangle;right=0;" parent="1" vertex="1">
          <mxGeometry x="500" y="630" width="20" height="30" as="geometry" />
        </mxCell>
        <mxCell id="ZqO9aC7JYhHN-Veu2SgB-112" value="&lt;div align=&quot;left&quot;&gt;0xEE&lt;/div&gt;" style="html=1;dashed=0;whiteSpace=wrap;shape=partialRectangle;right=0;align=left;" parent="1" vertex="1">
          <mxGeometry x="760" y="585" width="30" height="30" as="geometry" />
        </mxCell>
        <mxCell id="ZqO9aC7JYhHN-Veu2SgB-136" value="3" style="html=1;dashed=0;whiteSpace=wrap;shape=partialRectangle;right=0;" parent="1" vertex="1">
          <mxGeometry x="760" y="450" width="20" height="30" as="geometry" />
        </mxCell>
        <mxCell id="ZqO9aC7JYhHN-Veu2SgB-137" value="9" style="html=1;dashed=0;whiteSpace=wrap;shape=partialRectangle;right=0;" parent="1" vertex="1">
          <mxGeometry x="780" y="450" width="20" height="30" as="geometry" />
        </mxCell>
        <mxCell id="ZqO9aC7JYhHN-Veu2SgB-138" value="6" style="html=1;dashed=0;whiteSpace=wrap;shape=partialRectangle;right=0;" parent="1" vertex="1">
          <mxGeometry x="800" y="450" width="20" height="30" as="geometry" />
        </mxCell>
        <mxCell id="ZqO9aC7JYhHN-Veu2SgB-139" value="4" style="html=1;dashed=0;whiteSpace=wrap;shape=partialRectangle;right=0;" parent="1" vertex="1">
          <mxGeometry x="820" y="450" width="20" height="30" as="geometry" />
        </mxCell>
        <mxCell id="ZqO9aC7JYhHN-Veu2SgB-140" value="5" style="html=1;dashed=0;whiteSpace=wrap;shape=partialRectangle;right=0;" parent="1" vertex="1">
          <mxGeometry x="840" y="450" width="20" height="30" as="geometry" />
        </mxCell>
        <mxCell id="ZqO9aC7JYhHN-Veu2SgB-141" value="7" style="html=1;dashed=0;whiteSpace=wrap;shape=partialRectangle;right=0;" parent="1" vertex="1">
          <mxGeometry x="860" y="450" width="20" height="30" as="geometry" />
        </mxCell>
        <mxCell id="ZqO9aC7JYhHN-Veu2SgB-142" value="4" style="html=1;dashed=0;whiteSpace=wrap;shape=partialRectangle;right=0;" parent="1" vertex="1">
          <mxGeometry x="880" y="450" width="20" height="30" as="geometry" />
        </mxCell>
        <mxCell id="ZqO9aC7JYhHN-Veu2SgB-143" value="4" style="html=1;dashed=0;whiteSpace=wrap;shape=partialRectangle;right=0;" parent="1" vertex="1">
          <mxGeometry x="900" y="450" width="20" height="30" as="geometry" />
        </mxCell>
        <mxCell id="ZqO9aC7JYhHN-Veu2SgB-144" value="&lt;div align=&quot;left&quot;&gt;0x8B&lt;/div&gt;" style="html=1;dashed=0;whiteSpace=wrap;shape=partialRectangle;right=0;align=left;" parent="1" vertex="1">
          <mxGeometry x="790" y="585" width="30" height="30" as="geometry" />
        </mxCell>
        <mxCell id="ZqO9aC7JYhHN-Veu2SgB-145" value="&lt;div align=&quot;left&quot;&gt;0x98&lt;/div&gt;" style="html=1;dashed=0;whiteSpace=wrap;shape=partialRectangle;right=0;align=left;" parent="1" vertex="1">
          <mxGeometry x="820" y="585" width="30" height="30" as="geometry" />
        </mxCell>
        <mxCell id="ZqO9aC7JYhHN-Veu2SgB-146" value="&lt;div align=&quot;left&quot;&gt;0xE8&lt;/div&gt;" style="html=1;dashed=0;whiteSpace=wrap;shape=partialRectangle;right=0;align=left;" parent="1" vertex="1">
          <mxGeometry x="850" y="585" width="30" height="30" as="geometry" />
        </mxCell>
        <mxCell id="ZqO9aC7JYhHN-Veu2SgB-147" value="&lt;div align=&quot;left&quot;&gt;0xCC&lt;/div&gt;" style="html=1;dashed=0;whiteSpace=wrap;shape=partialRectangle;right=0;align=left;" parent="1" vertex="1">
          <mxGeometry x="880" y="585" width="30" height="30" as="geometry" />
        </mxCell>
        <mxCell id="ZqO9aC7JYhHN-Veu2SgB-148" value="&lt;div align=&quot;left&quot;&gt;0x09&lt;/div&gt;" style="html=1;dashed=0;whiteSpace=wrap;shape=partialRectangle;right=0;align=left;" parent="1" vertex="1">
          <mxGeometry x="910" y="585" width="30" height="30" as="geometry" />
        </mxCell>
        <mxCell id="ZqO9aC7JYhHN-Veu2SgB-149" value="&lt;div align=&quot;left&quot;&gt;0xFA&lt;/div&gt;" style="html=1;dashed=0;whiteSpace=wrap;shape=partialRectangle;right=0;align=left;" parent="1" vertex="1">
          <mxGeometry x="940" y="585" width="30" height="30" as="geometry" />
        </mxCell>
        <mxCell id="ZqO9aC7JYhHN-Veu2SgB-150" value="&lt;div align=&quot;left&quot;&gt;0xB2&lt;/div&gt;" style="html=1;dashed=0;whiteSpace=wrap;shape=partialRectangle;right=0;align=left;" parent="1" vertex="1">
          <mxGeometry x="970" y="585" width="30" height="30" as="geometry" />
        </mxCell>
        <mxCell id="ZqO9aC7JYhHN-Veu2SgB-151" value="&lt;div align=&quot;left&quot;&gt;0x55&lt;/div&gt;" style="html=1;dashed=0;whiteSpace=wrap;shape=partialRectangle;right=0;align=left;" parent="1" vertex="1">
          <mxGeometry x="760" y="615" width="30" height="30" as="geometry" />
        </mxCell>
        <mxCell id="ZqO9aC7JYhHN-Veu2SgB-152" value="0x54" style="html=1;dashed=0;whiteSpace=wrap;shape=partialRectangle;right=0;align=left;" parent="1" vertex="1">
          <mxGeometry x="790" y="615" width="30" height="30" as="geometry" />
        </mxCell>
        <mxCell id="ZqO9aC7JYhHN-Veu2SgB-153" value="0xB7" style="html=1;dashed=0;whiteSpace=wrap;shape=partialRectangle;right=0;align=left;" parent="1" vertex="1">
          <mxGeometry x="820" y="615" width="30" height="30" as="geometry" />
        </mxCell>
        <mxCell id="ZqO9aC7JYhHN-Veu2SgB-154" value="0x33" style="html=1;dashed=0;whiteSpace=wrap;shape=partialRectangle;right=0;align=left;" parent="1" vertex="1">
          <mxGeometry x="850" y="615" width="30" height="30" as="geometry" />
        </mxCell>
        <mxCell id="ZqO9aC7JYhHN-Veu2SgB-155" value="0x31" style="html=1;dashed=0;whiteSpace=wrap;shape=partialRectangle;right=0;align=left;" parent="1" vertex="1">
          <mxGeometry x="880" y="615" width="30" height="30" as="geometry" />
        </mxCell>
        <mxCell id="ZqO9aC7JYhHN-Veu2SgB-156" value="0x03" style="html=1;dashed=0;whiteSpace=wrap;shape=partialRectangle;right=0;align=left;" parent="1" vertex="1">
          <mxGeometry x="910" y="615" width="30" height="30" as="geometry" />
        </mxCell>
        <mxCell id="ZqO9aC7JYhHN-Veu2SgB-157" value="0xC9" style="html=1;dashed=0;whiteSpace=wrap;shape=partialRectangle;right=0;align=left;" parent="1" vertex="1">
          <mxGeometry x="940" y="615" width="30" height="30" as="geometry" />
        </mxCell>
        <mxCell id="ZqO9aC7JYhHN-Veu2SgB-158" value="0x86" style="html=1;dashed=0;whiteSpace=wrap;shape=partialRectangle;right=0;align=left;" parent="1" vertex="1">
          <mxGeometry x="970" y="615" width="30" height="30" as="geometry" />
        </mxCell>
        <mxCell id="ZqO9aC7JYhHN-Veu2SgB-159" value="0x64" style="html=1;dashed=0;whiteSpace=wrap;shape=partialRectangle;right=0;align=left;" parent="1" vertex="1">
          <mxGeometry x="760" y="645" width="30" height="30" as="geometry" />
        </mxCell>
        <mxCell id="ZqO9aC7JYhHN-Veu2SgB-160" value="0x16" style="html=1;dashed=0;whiteSpace=wrap;shape=partialRectangle;right=0;align=left;" parent="1" vertex="1">
          <mxGeometry x="790" y="645" width="30" height="30" as="geometry" />
        </mxCell>
        <mxCell id="ZqO9aC7JYhHN-Veu2SgB-161" value="0x72" style="html=1;dashed=0;whiteSpace=wrap;shape=partialRectangle;right=0;align=left;" parent="1" vertex="1">
          <mxGeometry x="820" y="645" width="30" height="30" as="geometry" />
        </mxCell>
        <mxCell id="ZqO9aC7JYhHN-Veu2SgB-162" value="0xD7" style="html=1;dashed=0;whiteSpace=wrap;shape=partialRectangle;right=0;align=left;" parent="1" vertex="1">
          <mxGeometry x="850" y="645" width="30" height="30" as="geometry" />
        </mxCell>
        <mxCell id="ZqO9aC7JYhHN-Veu2SgB-163" value="0xE5" style="html=1;dashed=0;whiteSpace=wrap;shape=partialRectangle;right=0;align=left;" parent="1" vertex="1">
          <mxGeometry x="880" y="645" width="30" height="30" as="geometry" />
        </mxCell>
        <mxCell id="ZqO9aC7JYhHN-Veu2SgB-164" value="0x5A" style="html=1;dashed=0;whiteSpace=wrap;shape=partialRectangle;right=0;align=left;" parent="1" vertex="1">
          <mxGeometry x="910" y="645" width="30" height="30" as="geometry" />
        </mxCell>
        <mxCell id="ZqO9aC7JYhHN-Veu2SgB-165" value="0x88" style="html=1;dashed=0;whiteSpace=wrap;shape=partialRectangle;right=0;align=left;" parent="1" vertex="1">
          <mxGeometry x="940" y="645" width="30" height="30" as="geometry" />
        </mxCell>
        <mxCell id="ZqO9aC7JYhHN-Veu2SgB-166" value="0x15" style="html=1;dashed=0;whiteSpace=wrap;shape=partialRectangle;right=0;align=left;" parent="1" vertex="1">
          <mxGeometry x="970" y="645" width="30" height="30" as="geometry" />
        </mxCell>
        <mxCell id="ZqO9aC7JYhHN-Veu2SgB-167" value="0xC1" style="html=1;dashed=0;whiteSpace=wrap;shape=partialRectangle;right=0;align=left;" parent="1" vertex="1">
          <mxGeometry x="760" y="675" width="30" height="30" as="geometry" />
        </mxCell>
        <mxCell id="ZqO9aC7JYhHN-Veu2SgB-168" value="0x0B" style="html=1;dashed=0;whiteSpace=wrap;shape=partialRectangle;right=0;align=left;" parent="1" vertex="1">
          <mxGeometry x="790" y="675" width="30" height="30" as="geometry" />
        </mxCell>
        <mxCell id="ZqO9aC7JYhHN-Veu2SgB-169" value="0xB3" style="html=1;dashed=0;whiteSpace=wrap;shape=partialRectangle;right=0;align=left;" parent="1" vertex="1">
          <mxGeometry x="820" y="675" width="30" height="30" as="geometry" />
        </mxCell>
        <mxCell id="ZqO9aC7JYhHN-Veu2SgB-170" value="0xF3" style="html=1;dashed=0;whiteSpace=wrap;shape=partialRectangle;right=0;align=left;" parent="1" vertex="1">
          <mxGeometry x="850" y="675" width="30" height="30" as="geometry" />
        </mxCell>
        <mxCell id="ZqO9aC7JYhHN-Veu2SgB-171" value="0x56" style="html=1;dashed=0;whiteSpace=wrap;shape=partialRectangle;right=0;align=left;" parent="1" vertex="1">
          <mxGeometry x="880" y="675" width="30" height="30" as="geometry" />
        </mxCell>
        <mxCell id="ZqO9aC7JYhHN-Veu2SgB-172" value="0xEB" style="html=1;dashed=0;whiteSpace=wrap;shape=partialRectangle;right=0;align=left;" parent="1" vertex="1">
          <mxGeometry x="910" y="675" width="30" height="30" as="geometry" />
        </mxCell>
        <mxCell id="ZqO9aC7JYhHN-Veu2SgB-173" value="0xAC" style="html=1;dashed=0;whiteSpace=wrap;shape=partialRectangle;right=0;align=left;" parent="1" vertex="1">
          <mxGeometry x="940" y="675" width="30" height="30" as="geometry" />
        </mxCell>
        <mxCell id="ZqO9aC7JYhHN-Veu2SgB-174" value="0x02" style="html=1;dashed=0;whiteSpace=wrap;shape=partialRectangle;right=0;align=left;" parent="1" vertex="1">
          <mxGeometry x="970" y="675" width="30" height="30" as="geometry" />
        </mxCell>
        <mxCell id="ZqO9aC7JYhHN-Veu2SgB-176" value="0x03" style="text;html=1;align=center;verticalAlign=middle;whiteSpace=wrap;rounded=0;" parent="1" vertex="1">
          <mxGeometry x="270" y="630" width="60" height="30" as="geometry" />
        </mxCell>
        <mxCell id="ZqO9aC7JYhHN-Veu2SgB-179" value="" style="edgeStyle=orthogonalEdgeStyle;rounded=0;orthogonalLoop=1;jettySize=auto;html=1;" parent="1" source="ZqO9aC7JYhHN-Veu2SgB-180" target="ZqO9aC7JYhHN-Veu2SgB-183" edge="1">
          <mxGeometry relative="1" as="geometry" />
        </mxCell>
        <mxCell id="ZqO9aC7JYhHN-Veu2SgB-180" value="&lt;div&gt;load address of key table [0] high byte into ZH&lt;/div&gt;" style="whiteSpace=wrap;html=1;dashed=0;" parent="1" vertex="1">
          <mxGeometry x="105" y="1480" width="120" height="60" as="geometry" />
        </mxCell>
        <mxCell id="ZqO9aC7JYhHN-Veu2SgB-181" value="R31" style="html=1;dashed=0;whiteSpace=wrap;shape=mxgraph.dfd.dataStoreID;align=left;spacingLeft=3;points=[[0,0],[0.5,0],[1,0],[0,0.5],[1,0.5],[0,1],[0.5,1],[1,1]];" parent="1" vertex="1">
          <mxGeometry x="245" y="1510" width="100" height="30" as="geometry" />
        </mxCell>
        <mxCell id="ZqO9aC7JYhHN-Veu2SgB-182" value="0x00" style="text;html=1;align=center;verticalAlign=middle;whiteSpace=wrap;rounded=0;" parent="1" vertex="1">
          <mxGeometry x="265" y="1510" width="60" height="30" as="geometry" />
        </mxCell>
        <mxCell id="ZqO9aC7JYhHN-Veu2SgB-191" style="edgeStyle=orthogonalEdgeStyle;rounded=0;orthogonalLoop=1;jettySize=auto;html=1;entryX=0.5;entryY=0;entryDx=0;entryDy=0;" parent="1" source="ZqO9aC7JYhHN-Veu2SgB-183" target="ZqO9aC7JYhHN-Veu2SgB-186" edge="1">
          <mxGeometry relative="1" as="geometry" />
        </mxCell>
        <mxCell id="ZqO9aC7JYhHN-Veu2SgB-183" value="&lt;div&gt;load address of&amp;nbsp;key table [0] &amp;nbsp; low byte into ZL&lt;/div&gt;" style="whiteSpace=wrap;html=1;dashed=0;" parent="1" vertex="1">
          <mxGeometry x="105" y="1585" width="120" height="60" as="geometry" />
        </mxCell>
        <mxCell id="ZqO9aC7JYhHN-Veu2SgB-184" value="R30" style="html=1;dashed=0;whiteSpace=wrap;shape=mxgraph.dfd.dataStoreID;align=left;spacingLeft=3;points=[[0,0],[0.5,0],[1,0],[0,0.5],[1,0.5],[0,1],[0.5,1],[1,1]];" parent="1" vertex="1">
          <mxGeometry x="245" y="1585" width="100" height="30" as="geometry" />
        </mxCell>
        <mxCell id="ZqO9aC7JYhHN-Veu2SgB-185" value="0x44" style="text;html=1;align=center;verticalAlign=middle;whiteSpace=wrap;rounded=0;" parent="1" vertex="1">
          <mxGeometry x="265" y="1585" width="60" height="30" as="geometry" />
        </mxCell>
        <mxCell id="ZqO9aC7JYhHN-Veu2SgB-197" value="" style="edgeStyle=orthogonalEdgeStyle;rounded=0;orthogonalLoop=1;jettySize=auto;html=1;" parent="1" source="ZqO9aC7JYhHN-Veu2SgB-186" target="ZqO9aC7JYhHN-Veu2SgB-196" edge="1">
          <mxGeometry relative="1" as="geometry" />
        </mxCell>
        <mxCell id="ZqO9aC7JYhHN-Veu2SgB-186" value="Add singleKey to ZL address (ZL=keyTable[1+3])" style="whiteSpace=wrap;html=1;dashed=0;" parent="1" vertex="1">
          <mxGeometry x="105" y="1727.5" width="120" height="60" as="geometry" />
        </mxCell>
        <mxCell id="ZqO9aC7JYhHN-Veu2SgB-187" value="&lt;div align=&quot;center&quot;&gt;Z&lt;br&gt;&lt;/div&gt;" style="html=1;dashed=0;whiteSpace=wrap;shape=mxgraph.dfd.dataStoreID;align=left;spacingLeft=3;points=[[0,0],[0.5,0],[1,0],[0,0.5],[1,0.5],[0,1],[0.5,1],[1,1]];" parent="1" vertex="1">
          <mxGeometry x="245" y="1742.5" width="100" height="30" as="geometry" />
        </mxCell>
        <mxCell id="ZqO9aC7JYhHN-Veu2SgB-188" value="0x0044" style="text;html=1;align=center;verticalAlign=middle;whiteSpace=wrap;rounded=0;" parent="1" vertex="1">
          <mxGeometry x="275" y="1742.5" width="60" height="30" as="geometry" />
        </mxCell>
        <mxCell id="ZqO9aC7JYhHN-Veu2SgB-189" value="R16" style="html=1;dashed=0;whiteSpace=wrap;shape=mxgraph.dfd.dataStoreID;align=left;spacingLeft=3;points=[[0,0],[0.5,0],[1,0],[0,0.5],[1,0.5],[0,1],[0.5,1],[1,1]];" parent="1" vertex="1">
          <mxGeometry x="375" y="1742.5" width="100" height="30" as="geometry" />
        </mxCell>
        <mxCell id="ZqO9aC7JYhHN-Veu2SgB-190" value="0x03" style="text;html=1;align=center;verticalAlign=middle;whiteSpace=wrap;rounded=0;" parent="1" vertex="1">
          <mxGeometry x="405" y="1742.5" width="60" height="30" as="geometry" />
        </mxCell>
        <mxCell id="ZqO9aC7JYhHN-Veu2SgB-192" value="&lt;font style=&quot;font-size: 16px;&quot;&gt;+&lt;/font&gt;" style="text;html=1;align=center;verticalAlign=middle;whiteSpace=wrap;rounded=0;" parent="1" vertex="1">
          <mxGeometry x="335" y="1742.5" width="60" height="30" as="geometry" />
        </mxCell>
        <mxCell id="ZqO9aC7JYhHN-Veu2SgB-193" value="&lt;div align=&quot;center&quot;&gt;Z&lt;br&gt;&lt;/div&gt;" style="html=1;dashed=0;whiteSpace=wrap;shape=mxgraph.dfd.dataStoreID;align=left;spacingLeft=3;points=[[0,0],[0.5,0],[1,0],[0,0.5],[1,0.5],[0,1],[0.5,1],[1,1]];" parent="1" vertex="1">
          <mxGeometry x="315" y="1797.5" width="100" height="30" as="geometry" />
        </mxCell>
        <mxCell id="ZqO9aC7JYhHN-Veu2SgB-194" value="0x0047" style="text;html=1;align=center;verticalAlign=middle;whiteSpace=wrap;rounded=0;" parent="1" vertex="1">
          <mxGeometry x="345" y="1797.5" width="60" height="30" as="geometry" />
        </mxCell>
        <mxCell id="ZqO9aC7JYhHN-Veu2SgB-195" value="=" style="text;html=1;align=center;verticalAlign=middle;whiteSpace=wrap;rounded=0;" parent="1" vertex="1">
          <mxGeometry x="335" y="1772.5" width="60" height="30" as="geometry" />
        </mxCell>
        <mxCell id="ZqO9aC7JYhHN-Veu2SgB-196" value="Load value from program memory address@Z into singleKey" style="whiteSpace=wrap;html=1;dashed=0;" parent="1" vertex="1">
          <mxGeometry x="105" y="1867.5" width="120" height="90" as="geometry" />
        </mxCell>
        <mxCell id="ZqO9aC7JYhHN-Veu2SgB-198" value="&lt;div align=&quot;left&quot;&gt;0xEE&lt;/div&gt;" style="html=1;dashed=0;whiteSpace=wrap;shape=partialRectangle;right=0;align=left;" parent="1" vertex="1">
          <mxGeometry x="465" y="1807.5" width="30" height="30" as="geometry" />
        </mxCell>
        <mxCell id="ZqO9aC7JYhHN-Veu2SgB-199" value="&lt;div align=&quot;left&quot;&gt;0x8B&lt;/div&gt;" style="html=1;dashed=0;whiteSpace=wrap;shape=partialRectangle;right=0;align=left;" parent="1" vertex="1">
          <mxGeometry x="495" y="1807.5" width="30" height="30" as="geometry" />
        </mxCell>
        <mxCell id="ZqO9aC7JYhHN-Veu2SgB-200" value="&lt;div align=&quot;left&quot;&gt;0x98&lt;/div&gt;" style="html=1;dashed=0;whiteSpace=wrap;shape=partialRectangle;right=0;align=left;" parent="1" vertex="1">
          <mxGeometry x="525" y="1807.5" width="30" height="30" as="geometry" />
        </mxCell>
        <mxCell id="ZqO9aC7JYhHN-Veu2SgB-201" value="&lt;div align=&quot;left&quot;&gt;0xE8&lt;/div&gt;" style="html=1;dashed=0;whiteSpace=wrap;shape=partialRectangle;right=0;align=left;" parent="1" vertex="1">
          <mxGeometry x="555" y="1807.5" width="30" height="30" as="geometry" />
        </mxCell>
        <mxCell id="ZqO9aC7JYhHN-Veu2SgB-202" value="&lt;div align=&quot;left&quot;&gt;0xCC&lt;/div&gt;" style="html=1;dashed=0;whiteSpace=wrap;shape=partialRectangle;right=0;align=left;" parent="1" vertex="1">
          <mxGeometry x="585" y="1807.5" width="30" height="30" as="geometry" />
        </mxCell>
        <mxCell id="ZqO9aC7JYhHN-Veu2SgB-203" value="&lt;div align=&quot;left&quot;&gt;0x09&lt;/div&gt;" style="html=1;dashed=0;whiteSpace=wrap;shape=partialRectangle;right=0;align=left;" parent="1" vertex="1">
          <mxGeometry x="615" y="1807.5" width="30" height="30" as="geometry" />
        </mxCell>
        <mxCell id="ZqO9aC7JYhHN-Veu2SgB-204" value="&lt;div align=&quot;left&quot;&gt;0xFA&lt;/div&gt;" style="html=1;dashed=0;whiteSpace=wrap;shape=partialRectangle;right=0;align=left;" parent="1" vertex="1">
          <mxGeometry x="645" y="1807.5" width="30" height="30" as="geometry" />
        </mxCell>
        <mxCell id="ZqO9aC7JYhHN-Veu2SgB-205" value="&lt;div align=&quot;left&quot;&gt;0xB2&lt;/div&gt;" style="html=1;dashed=0;whiteSpace=wrap;shape=partialRectangle;right=0;align=left;" parent="1" vertex="1">
          <mxGeometry x="675" y="1807.5" width="30" height="30" as="geometry" />
        </mxCell>
        <mxCell id="ZqO9aC7JYhHN-Veu2SgB-206" value="&lt;div align=&quot;left&quot;&gt;0x55&lt;/div&gt;" style="html=1;dashed=0;whiteSpace=wrap;shape=partialRectangle;right=0;align=left;" parent="1" vertex="1">
          <mxGeometry x="465" y="1837.5" width="30" height="30" as="geometry" />
        </mxCell>
        <mxCell id="ZqO9aC7JYhHN-Veu2SgB-207" value="0x54" style="html=1;dashed=0;whiteSpace=wrap;shape=partialRectangle;right=0;align=left;" parent="1" vertex="1">
          <mxGeometry x="495" y="1837.5" width="30" height="30" as="geometry" />
        </mxCell>
        <mxCell id="ZqO9aC7JYhHN-Veu2SgB-208" value="0xB7" style="html=1;dashed=0;whiteSpace=wrap;shape=partialRectangle;right=0;align=left;" parent="1" vertex="1">
          <mxGeometry x="525" y="1837.5" width="30" height="30" as="geometry" />
        </mxCell>
        <mxCell id="ZqO9aC7JYhHN-Veu2SgB-209" value="0x33" style="html=1;dashed=0;whiteSpace=wrap;shape=partialRectangle;right=0;align=left;" parent="1" vertex="1">
          <mxGeometry x="555" y="1837.5" width="30" height="30" as="geometry" />
        </mxCell>
        <mxCell id="ZqO9aC7JYhHN-Veu2SgB-210" value="0x31" style="html=1;dashed=0;whiteSpace=wrap;shape=partialRectangle;right=0;align=left;" parent="1" vertex="1">
          <mxGeometry x="585" y="1837.5" width="30" height="30" as="geometry" />
        </mxCell>
        <mxCell id="ZqO9aC7JYhHN-Veu2SgB-211" value="0x03" style="html=1;dashed=0;whiteSpace=wrap;shape=partialRectangle;right=0;align=left;" parent="1" vertex="1">
          <mxGeometry x="615" y="1837.5" width="30" height="30" as="geometry" />
        </mxCell>
        <mxCell id="ZqO9aC7JYhHN-Veu2SgB-212" value="0xC9" style="html=1;dashed=0;whiteSpace=wrap;shape=partialRectangle;right=0;align=left;" parent="1" vertex="1">
          <mxGeometry x="645" y="1837.5" width="30" height="30" as="geometry" />
        </mxCell>
        <mxCell id="ZqO9aC7JYhHN-Veu2SgB-213" value="0x86" style="html=1;dashed=0;whiteSpace=wrap;shape=partialRectangle;right=0;align=left;" parent="1" vertex="1">
          <mxGeometry x="675" y="1837.5" width="30" height="30" as="geometry" />
        </mxCell>
        <mxCell id="ZqO9aC7JYhHN-Veu2SgB-214" value="0x64" style="html=1;dashed=0;whiteSpace=wrap;shape=partialRectangle;right=0;align=left;" parent="1" vertex="1">
          <mxGeometry x="465" y="1867.5" width="30" height="30" as="geometry" />
        </mxCell>
        <mxCell id="ZqO9aC7JYhHN-Veu2SgB-215" value="0x16" style="html=1;dashed=0;whiteSpace=wrap;shape=partialRectangle;right=0;align=left;" parent="1" vertex="1">
          <mxGeometry x="495" y="1867.5" width="30" height="30" as="geometry" />
        </mxCell>
        <mxCell id="ZqO9aC7JYhHN-Veu2SgB-216" value="0x72" style="html=1;dashed=0;whiteSpace=wrap;shape=partialRectangle;right=0;align=left;" parent="1" vertex="1">
          <mxGeometry x="525" y="1867.5" width="30" height="30" as="geometry" />
        </mxCell>
        <mxCell id="ZqO9aC7JYhHN-Veu2SgB-217" value="0xD7" style="html=1;dashed=0;whiteSpace=wrap;shape=partialRectangle;right=0;align=left;" parent="1" vertex="1">
          <mxGeometry x="555" y="1867.5" width="30" height="30" as="geometry" />
        </mxCell>
        <mxCell id="ZqO9aC7JYhHN-Veu2SgB-218" value="0xE5" style="html=1;dashed=0;whiteSpace=wrap;shape=partialRectangle;right=0;align=left;" parent="1" vertex="1">
          <mxGeometry x="585" y="1867.5" width="30" height="30" as="geometry" />
        </mxCell>
        <mxCell id="ZqO9aC7JYhHN-Veu2SgB-219" value="0x5A" style="html=1;dashed=0;whiteSpace=wrap;shape=partialRectangle;right=0;align=left;" parent="1" vertex="1">
          <mxGeometry x="615" y="1867.5" width="30" height="30" as="geometry" />
        </mxCell>
        <mxCell id="ZqO9aC7JYhHN-Veu2SgB-220" value="0x88" style="html=1;dashed=0;whiteSpace=wrap;shape=partialRectangle;right=0;align=left;" parent="1" vertex="1">
          <mxGeometry x="645" y="1867.5" width="30" height="30" as="geometry" />
        </mxCell>
        <mxCell id="ZqO9aC7JYhHN-Veu2SgB-221" value="0x15" style="html=1;dashed=0;whiteSpace=wrap;shape=partialRectangle;right=0;align=left;" parent="1" vertex="1">
          <mxGeometry x="675" y="1867.5" width="30" height="30" as="geometry" />
        </mxCell>
        <mxCell id="ZqO9aC7JYhHN-Veu2SgB-222" value="0xC1" style="html=1;dashed=0;whiteSpace=wrap;shape=partialRectangle;right=0;align=left;" parent="1" vertex="1">
          <mxGeometry x="465" y="1897.5" width="30" height="30" as="geometry" />
        </mxCell>
        <mxCell id="ZqO9aC7JYhHN-Veu2SgB-223" value="0x0B" style="html=1;dashed=0;whiteSpace=wrap;shape=partialRectangle;right=0;align=left;" parent="1" vertex="1">
          <mxGeometry x="495" y="1897.5" width="30" height="30" as="geometry" />
        </mxCell>
        <mxCell id="ZqO9aC7JYhHN-Veu2SgB-224" value="0xB3" style="html=1;dashed=0;whiteSpace=wrap;shape=partialRectangle;right=0;align=left;" parent="1" vertex="1">
          <mxGeometry x="525" y="1897.5" width="30" height="30" as="geometry" />
        </mxCell>
        <mxCell id="ZqO9aC7JYhHN-Veu2SgB-225" value="0xF3" style="html=1;dashed=0;whiteSpace=wrap;shape=partialRectangle;right=0;align=left;" parent="1" vertex="1">
          <mxGeometry x="555" y="1897.5" width="30" height="30" as="geometry" />
        </mxCell>
        <mxCell id="ZqO9aC7JYhHN-Veu2SgB-226" value="0x56" style="html=1;dashed=0;whiteSpace=wrap;shape=partialRectangle;right=0;align=left;" parent="1" vertex="1">
          <mxGeometry x="585" y="1897.5" width="30" height="30" as="geometry" />
        </mxCell>
        <mxCell id="ZqO9aC7JYhHN-Veu2SgB-227" value="0xEB" style="html=1;dashed=0;whiteSpace=wrap;shape=partialRectangle;right=0;align=left;" parent="1" vertex="1">
          <mxGeometry x="615" y="1897.5" width="30" height="30" as="geometry" />
        </mxCell>
        <mxCell id="ZqO9aC7JYhHN-Veu2SgB-228" value="0xAC" style="html=1;dashed=0;whiteSpace=wrap;shape=partialRectangle;right=0;align=left;" parent="1" vertex="1">
          <mxGeometry x="645" y="1897.5" width="30" height="30" as="geometry" />
        </mxCell>
        <mxCell id="ZqO9aC7JYhHN-Veu2SgB-229" value="0x02" style="html=1;dashed=0;whiteSpace=wrap;shape=partialRectangle;right=0;align=left;" parent="1" vertex="1">
          <mxGeometry x="675" y="1897.5" width="30" height="30" as="geometry" />
        </mxCell>
        <mxCell id="ZqO9aC7JYhHN-Veu2SgB-231" value="" style="elbow=horizontal;endArrow=classic;html=1;rounded=0;endSize=8;startSize=8;entryX=0.5;entryY=0;entryDx=0;entryDy=0;exitX=1;exitY=0.5;exitDx=0;exitDy=0;" parent="1" source="ZqO9aC7JYhHN-Veu2SgB-193" target="ZqO9aC7JYhHN-Veu2SgB-201" edge="1">
          <mxGeometry width="50" height="50" relative="1" as="geometry">
            <mxPoint x="415" y="1797.5" as="sourcePoint" />
            <mxPoint x="540" y="1787.5" as="targetPoint" />
            <Array as="points">
              <mxPoint x="445" y="1812.5" />
              <mxPoint x="445" y="1787.5" />
              <mxPoint x="570" y="1787.5" />
            </Array>
          </mxGeometry>
        </mxCell>
        <mxCell id="LiCZynD67ACgZe0Qm6pF-4" value="" style="edgeStyle=orthogonalEdgeStyle;rounded=0;orthogonalLoop=1;jettySize=auto;html=1;" edge="1" parent="1" source="LiCZynD67ACgZe0Qm6pF-5" target="LiCZynD67ACgZe0Qm6pF-6">
          <mxGeometry relative="1" as="geometry" />
        </mxCell>
        <mxCell id="LiCZynD67ACgZe0Qm6pF-5" value="&lt;div&gt;load address high byte of keyTable into ZH&lt;/div&gt;" style="whiteSpace=wrap;html=1;dashed=0;" vertex="1" parent="1">
          <mxGeometry x="100" y="705" width="120" height="60" as="geometry" />
        </mxCell>
        <mxCell id="LiCZynD67ACgZe0Qm6pF-47" value="" style="edgeStyle=orthogonalEdgeStyle;rounded=0;orthogonalLoop=1;jettySize=auto;html=1;" edge="1" parent="1" source="LiCZynD67ACgZe0Qm6pF-6" target="LiCZynD67ACgZe0Qm6pF-46">
          <mxGeometry relative="1" as="geometry" />
        </mxCell>
        <mxCell id="LiCZynD67ACgZe0Qm6pF-6" value="&lt;div&gt;load address low byte of keyTable into ZL&lt;/div&gt;" style="whiteSpace=wrap;html=1;dashed=0;" vertex="1" parent="1">
          <mxGeometry x="100" y="810" width="120" height="60" as="geometry" />
        </mxCell>
        <mxCell id="LiCZynD67ACgZe0Qm6pF-7" value="R31" style="html=1;dashed=0;whiteSpace=wrap;shape=mxgraph.dfd.dataStoreID;align=left;spacingLeft=3;points=[[0,0],[0.5,0],[1,0],[0,0.5],[1,0.5],[0,1],[0.5,1],[1,1]];" vertex="1" parent="1">
          <mxGeometry x="240" y="720" width="100" height="30" as="geometry" />
        </mxCell>
        <mxCell id="LiCZynD67ACgZe0Qm6pF-42" style="edgeStyle=orthogonalEdgeStyle;rounded=0;orthogonalLoop=1;jettySize=auto;html=1;entryX=0.5;entryY=0;entryDx=0;entryDy=0;dashed=1;dashPattern=8 8;endArrow=none;endFill=0;" edge="1" parent="1" source="LiCZynD67ACgZe0Qm6pF-8" target="LiCZynD67ACgZe0Qm6pF-10">
          <mxGeometry relative="1" as="geometry">
            <Array as="points">
              <mxPoint x="405" y="840" />
            </Array>
          </mxGeometry>
        </mxCell>
        <mxCell id="LiCZynD67ACgZe0Qm6pF-8" value="R30" style="html=1;dashed=0;whiteSpace=wrap;shape=mxgraph.dfd.dataStoreID;align=left;spacingLeft=3;points=[[0,0],[0.5,0],[1,0],[0,0.5],[1,0.5],[0,1],[0.5,1],[1,1]];" vertex="1" parent="1">
          <mxGeometry x="240" y="820" width="100" height="30" as="geometry" />
        </mxCell>
        <mxCell id="LiCZynD67ACgZe0Qm6pF-10" value="&lt;div align=&quot;left&quot;&gt;0xEE&lt;/div&gt;" style="html=1;dashed=0;whiteSpace=wrap;shape=partialRectangle;right=0;align=left;" vertex="1" parent="1">
          <mxGeometry x="390" y="860" width="30" height="30" as="geometry" />
        </mxCell>
        <mxCell id="LiCZynD67ACgZe0Qm6pF-11" value="&lt;div align=&quot;left&quot;&gt;0x8B&lt;/div&gt;" style="html=1;dashed=0;whiteSpace=wrap;shape=partialRectangle;right=0;align=left;" vertex="1" parent="1">
          <mxGeometry x="420" y="860" width="30" height="30" as="geometry" />
        </mxCell>
        <mxCell id="LiCZynD67ACgZe0Qm6pF-12" value="&lt;div align=&quot;left&quot;&gt;0x98&lt;/div&gt;" style="html=1;dashed=0;whiteSpace=wrap;shape=partialRectangle;right=0;align=left;" vertex="1" parent="1">
          <mxGeometry x="450" y="860" width="30" height="30" as="geometry" />
        </mxCell>
        <mxCell id="LiCZynD67ACgZe0Qm6pF-13" value="&lt;div align=&quot;left&quot;&gt;0xE8&lt;/div&gt;" style="html=1;dashed=0;whiteSpace=wrap;shape=partialRectangle;right=0;align=left;" vertex="1" parent="1">
          <mxGeometry x="480" y="860" width="30" height="30" as="geometry" />
        </mxCell>
        <mxCell id="LiCZynD67ACgZe0Qm6pF-14" value="&lt;div align=&quot;left&quot;&gt;0xCC&lt;/div&gt;" style="html=1;dashed=0;whiteSpace=wrap;shape=partialRectangle;right=0;align=left;" vertex="1" parent="1">
          <mxGeometry x="510" y="860" width="30" height="30" as="geometry" />
        </mxCell>
        <mxCell id="LiCZynD67ACgZe0Qm6pF-15" value="&lt;div align=&quot;left&quot;&gt;0x09&lt;/div&gt;" style="html=1;dashed=0;whiteSpace=wrap;shape=partialRectangle;right=0;align=left;" vertex="1" parent="1">
          <mxGeometry x="540" y="860" width="30" height="30" as="geometry" />
        </mxCell>
        <mxCell id="LiCZynD67ACgZe0Qm6pF-16" value="&lt;div align=&quot;left&quot;&gt;0xFA&lt;/div&gt;" style="html=1;dashed=0;whiteSpace=wrap;shape=partialRectangle;right=0;align=left;" vertex="1" parent="1">
          <mxGeometry x="570" y="860" width="30" height="30" as="geometry" />
        </mxCell>
        <mxCell id="LiCZynD67ACgZe0Qm6pF-17" value="&lt;div align=&quot;left&quot;&gt;0xB2&lt;/div&gt;" style="html=1;dashed=0;whiteSpace=wrap;shape=partialRectangle;right=0;align=left;" vertex="1" parent="1">
          <mxGeometry x="600" y="860" width="30" height="30" as="geometry" />
        </mxCell>
        <mxCell id="LiCZynD67ACgZe0Qm6pF-18" value="&lt;div align=&quot;left&quot;&gt;0x55&lt;/div&gt;" style="html=1;dashed=0;whiteSpace=wrap;shape=partialRectangle;right=0;align=left;" vertex="1" parent="1">
          <mxGeometry x="390" y="890" width="30" height="30" as="geometry" />
        </mxCell>
        <mxCell id="LiCZynD67ACgZe0Qm6pF-19" value="0x54" style="html=1;dashed=0;whiteSpace=wrap;shape=partialRectangle;right=0;align=left;" vertex="1" parent="1">
          <mxGeometry x="420" y="890" width="30" height="30" as="geometry" />
        </mxCell>
        <mxCell id="LiCZynD67ACgZe0Qm6pF-20" value="0xB7" style="html=1;dashed=0;whiteSpace=wrap;shape=partialRectangle;right=0;align=left;" vertex="1" parent="1">
          <mxGeometry x="450" y="890" width="30" height="30" as="geometry" />
        </mxCell>
        <mxCell id="LiCZynD67ACgZe0Qm6pF-21" value="0x33" style="html=1;dashed=0;whiteSpace=wrap;shape=partialRectangle;right=0;align=left;" vertex="1" parent="1">
          <mxGeometry x="480" y="890" width="30" height="30" as="geometry" />
        </mxCell>
        <mxCell id="LiCZynD67ACgZe0Qm6pF-22" value="0x31" style="html=1;dashed=0;whiteSpace=wrap;shape=partialRectangle;right=0;align=left;" vertex="1" parent="1">
          <mxGeometry x="510" y="890" width="30" height="30" as="geometry" />
        </mxCell>
        <mxCell id="LiCZynD67ACgZe0Qm6pF-23" value="0x03" style="html=1;dashed=0;whiteSpace=wrap;shape=partialRectangle;right=0;align=left;" vertex="1" parent="1">
          <mxGeometry x="540" y="890" width="30" height="30" as="geometry" />
        </mxCell>
        <mxCell id="LiCZynD67ACgZe0Qm6pF-24" value="0xC9" style="html=1;dashed=0;whiteSpace=wrap;shape=partialRectangle;right=0;align=left;" vertex="1" parent="1">
          <mxGeometry x="570" y="890" width="30" height="30" as="geometry" />
        </mxCell>
        <mxCell id="LiCZynD67ACgZe0Qm6pF-25" value="0x86" style="html=1;dashed=0;whiteSpace=wrap;shape=partialRectangle;right=0;align=left;" vertex="1" parent="1">
          <mxGeometry x="600" y="890" width="30" height="30" as="geometry" />
        </mxCell>
        <mxCell id="LiCZynD67ACgZe0Qm6pF-26" value="0x64" style="html=1;dashed=0;whiteSpace=wrap;shape=partialRectangle;right=0;align=left;" vertex="1" parent="1">
          <mxGeometry x="390" y="920" width="30" height="30" as="geometry" />
        </mxCell>
        <mxCell id="LiCZynD67ACgZe0Qm6pF-27" value="0x16" style="html=1;dashed=0;whiteSpace=wrap;shape=partialRectangle;right=0;align=left;" vertex="1" parent="1">
          <mxGeometry x="420" y="920" width="30" height="30" as="geometry" />
        </mxCell>
        <mxCell id="LiCZynD67ACgZe0Qm6pF-28" value="0x72" style="html=1;dashed=0;whiteSpace=wrap;shape=partialRectangle;right=0;align=left;" vertex="1" parent="1">
          <mxGeometry x="450" y="920" width="30" height="30" as="geometry" />
        </mxCell>
        <mxCell id="LiCZynD67ACgZe0Qm6pF-29" value="0xD7" style="html=1;dashed=0;whiteSpace=wrap;shape=partialRectangle;right=0;align=left;" vertex="1" parent="1">
          <mxGeometry x="480" y="920" width="30" height="30" as="geometry" />
        </mxCell>
        <mxCell id="LiCZynD67ACgZe0Qm6pF-30" value="0xE5" style="html=1;dashed=0;whiteSpace=wrap;shape=partialRectangle;right=0;align=left;" vertex="1" parent="1">
          <mxGeometry x="510" y="920" width="30" height="30" as="geometry" />
        </mxCell>
        <mxCell id="LiCZynD67ACgZe0Qm6pF-31" value="0x5A" style="html=1;dashed=0;whiteSpace=wrap;shape=partialRectangle;right=0;align=left;" vertex="1" parent="1">
          <mxGeometry x="540" y="920" width="30" height="30" as="geometry" />
        </mxCell>
        <mxCell id="LiCZynD67ACgZe0Qm6pF-32" value="0x88" style="html=1;dashed=0;whiteSpace=wrap;shape=partialRectangle;right=0;align=left;" vertex="1" parent="1">
          <mxGeometry x="570" y="920" width="30" height="30" as="geometry" />
        </mxCell>
        <mxCell id="LiCZynD67ACgZe0Qm6pF-33" value="0x15" style="html=1;dashed=0;whiteSpace=wrap;shape=partialRectangle;right=0;align=left;" vertex="1" parent="1">
          <mxGeometry x="600" y="920" width="30" height="30" as="geometry" />
        </mxCell>
        <mxCell id="LiCZynD67ACgZe0Qm6pF-34" value="0xC1" style="html=1;dashed=0;whiteSpace=wrap;shape=partialRectangle;right=0;align=left;" vertex="1" parent="1">
          <mxGeometry x="390" y="950" width="30" height="30" as="geometry" />
        </mxCell>
        <mxCell id="LiCZynD67ACgZe0Qm6pF-35" value="0x0B" style="html=1;dashed=0;whiteSpace=wrap;shape=partialRectangle;right=0;align=left;" vertex="1" parent="1">
          <mxGeometry x="420" y="950" width="30" height="30" as="geometry" />
        </mxCell>
        <mxCell id="LiCZynD67ACgZe0Qm6pF-36" value="0xB3" style="html=1;dashed=0;whiteSpace=wrap;shape=partialRectangle;right=0;align=left;" vertex="1" parent="1">
          <mxGeometry x="450" y="950" width="30" height="30" as="geometry" />
        </mxCell>
        <mxCell id="LiCZynD67ACgZe0Qm6pF-37" value="0xF3" style="html=1;dashed=0;whiteSpace=wrap;shape=partialRectangle;right=0;align=left;" vertex="1" parent="1">
          <mxGeometry x="480" y="950" width="30" height="30" as="geometry" />
        </mxCell>
        <mxCell id="LiCZynD67ACgZe0Qm6pF-38" value="0x56" style="html=1;dashed=0;whiteSpace=wrap;shape=partialRectangle;right=0;align=left;" vertex="1" parent="1">
          <mxGeometry x="510" y="950" width="30" height="30" as="geometry" />
        </mxCell>
        <mxCell id="LiCZynD67ACgZe0Qm6pF-39" value="0xEB" style="html=1;dashed=0;whiteSpace=wrap;shape=partialRectangle;right=0;align=left;" vertex="1" parent="1">
          <mxGeometry x="540" y="950" width="30" height="30" as="geometry" />
        </mxCell>
        <mxCell id="LiCZynD67ACgZe0Qm6pF-40" value="0xAC" style="html=1;dashed=0;whiteSpace=wrap;shape=partialRectangle;right=0;align=left;" vertex="1" parent="1">
          <mxGeometry x="570" y="950" width="30" height="30" as="geometry" />
        </mxCell>
        <mxCell id="LiCZynD67ACgZe0Qm6pF-41" value="0x02" style="html=1;dashed=0;whiteSpace=wrap;shape=partialRectangle;right=0;align=left;" vertex="1" parent="1">
          <mxGeometry x="600" y="950" width="30" height="30" as="geometry" />
        </mxCell>
        <mxCell id="LiCZynD67ACgZe0Qm6pF-54" style="edgeStyle=orthogonalEdgeStyle;rounded=0;orthogonalLoop=1;jettySize=auto;html=1;entryX=0.5;entryY=0;entryDx=0;entryDy=0;" edge="1" parent="1" source="LiCZynD67ACgZe0Qm6pF-46" target="LiCZynD67ACgZe0Qm6pF-53">
          <mxGeometry relative="1" as="geometry" />
        </mxCell>
        <mxCell id="LiCZynD67ACgZe0Qm6pF-46" value="add R16 to ZL" style="whiteSpace=wrap;html=1;dashed=0;" vertex="1" parent="1">
          <mxGeometry x="100" y="910" width="120" height="60" as="geometry" />
        </mxCell>
        <mxCell id="LiCZynD67ACgZe0Qm6pF-48" value="R18" style="html=1;dashed=0;whiteSpace=wrap;shape=mxgraph.dfd.dataStoreID;align=left;spacingLeft=3;points=[[0,0],[0.5,0],[1,0],[0,0.5],[1,0.5],[0,1],[0.5,1],[1,1]];" vertex="1" parent="1">
          <mxGeometry x="240" y="900" width="100" height="30" as="geometry" />
        </mxCell>
        <mxCell id="LiCZynD67ACgZe0Qm6pF-50" value="0x03" style="text;html=1;align=center;verticalAlign=middle;whiteSpace=wrap;rounded=0;" vertex="1" parent="1">
          <mxGeometry x="270" y="900" width="60" height="30" as="geometry" />
        </mxCell>
        <mxCell id="LiCZynD67ACgZe0Qm6pF-51" style="edgeStyle=orthogonalEdgeStyle;rounded=0;orthogonalLoop=1;jettySize=auto;html=1;entryX=0.608;entryY=1.05;entryDx=0;entryDy=0;entryPerimeter=0;" edge="1" parent="1" source="LiCZynD67ACgZe0Qm6pF-50" target="LiCZynD67ACgZe0Qm6pF-8">
          <mxGeometry relative="1" as="geometry" />
        </mxCell>
        <mxCell id="LiCZynD67ACgZe0Qm6pF-52" style="edgeStyle=orthogonalEdgeStyle;rounded=0;orthogonalLoop=1;jettySize=auto;html=1;entryX=0.5;entryY=0;entryDx=0;entryDy=0;" edge="1" parent="1" source="LiCZynD67ACgZe0Qm6pF-8" target="LiCZynD67ACgZe0Qm6pF-13">
          <mxGeometry relative="1" as="geometry">
            <mxPoint x="410" y="840" as="sourcePoint" />
            <mxPoint x="405" y="860" as="targetPoint" />
          </mxGeometry>
        </mxCell>
        <mxCell id="LiCZynD67ACgZe0Qm6pF-57" value="" style="edgeStyle=orthogonalEdgeStyle;rounded=0;orthogonalLoop=1;jettySize=auto;html=1;" edge="1" parent="1" source="LiCZynD67ACgZe0Qm6pF-53" target="LiCZynD67ACgZe0Qm6pF-56">
          <mxGeometry relative="1" as="geometry" />
        </mxCell>
        <mxCell id="LiCZynD67ACgZe0Qm6pF-53" value="Load value at program memory address (from Z register) into singleKey" style="whiteSpace=wrap;html=1;dashed=0;" vertex="1" parent="1">
          <mxGeometry x="100" y="1030" width="120" height="80" as="geometry" />
        </mxCell>
        <mxCell id="LiCZynD67ACgZe0Qm6pF-55" value="R15" style="html=1;dashed=0;whiteSpace=wrap;shape=mxgraph.dfd.dataStoreID;align=left;spacingLeft=3;points=[[0,0],[0.5,0],[1,0],[0,0.5],[1,0.5],[0,1],[0.5,1],[1,1]];" vertex="1" parent="1">
          <mxGeometry x="240" y="1030" width="100" height="30" as="geometry" />
        </mxCell>
        <mxCell id="LiCZynD67ACgZe0Qm6pF-56" value="add " style="whiteSpace=wrap;html=1;dashed=0;" vertex="1" parent="1">
          <mxGeometry x="100" y="1150" width="120" height="80" as="geometry" />
        </mxCell>
      </root>
    </mxGraphModel>
  </diagram>
</mxfile>
